# xmcd
#
# Track frame offsets: 
#        150
#        24100
#        45908
#        64208
#        74581
#        102081
#        123321
#
# Disc length: 2017 seconds
#
# Revision: 1
# Processed by: cddbd v1.5.2PL0 Copyright (c) Steve Scherf et al.
# Submitted via: ExactAudioCopy v1.1
#
DISCID=5407df07
DTITLE=Red White 'n Blue - Red White 'n Blue
DYEAR=1975
DGENRE=Blues
TTITLE0=Happyville
TTITLE1=Perfection
TTITLE2=Master Of Planning
TTITLE3=Pigeon Girl
TTITLE4=Bird
TTITLE5=Country Life
TTITLE6=Freewheeler
EXTD=
EXTT0=
EXTT1=
EXTT2=
EXTT3=
EXTT4=
EXTT5=
EXTT6=
PLAYORDER=
